<svg width="256" height="256" xmlns="http://www.w3.org/2000/svg" t="1635251126973" class="icon" version="1.1" p-id="21880">
  <g>
    <path d="m127.95005,255.91861l127.95005,-73.87106l-127.95005,-73.87414l-127.95005,73.87414l127.95005,73.87106z" fill="#3D4265" p-id="21881" id="svg_4" />
    <path d="m127.95005,201.83345l127.95005,-73.87414l-127.95005,-73.87106l-127.95005,73.87106l127.95005,73.87414z" fill="#386BF3" p-id="21882" id="svg_3" />
    <path d="m127.95005,147.7452l127.95005,-73.87106l-127.95005,-73.87414l-127.95005,73.87414l127.95005,73.87106z" fill="#C3D2FB" p-id="21883" id="svg_2" />
    <path d="m127.95005,46.54588a25.71438,25.20967 0 0 0 -7.24101,1.13619a12.84097,12.58893 0 0 1 1.67813,6.1354a12.98004,12.72527 0 0 1 -12.98004,12.72527a12.84097,12.58893 0 0 1 -6.25823,-1.6452a25.89286,25.38464 0 1 0 24.80114,-18.35166l0,0zm65.94786,22.13288c-12.56978,-24.04394 -37.45436,-40.31184 -65.94786,-40.31184s-53.38504,16.27926 -65.94786,40.31411a7.49829,7.35112 0 0 0 0,6.63305c12.56978,24.04394 37.45436,40.31184 65.94786,40.31184s53.38504,-16.27926 65.94786,-40.31411a7.49829,7.35112 0 0 0 0,-6.63305zm-65.94786,36.03979c-22.86573,0 -43.82849,-12.49803 -55.14893,-32.72213c11.32045,-20.22409 32.28089,-32.72213 55.14893,-32.72213s43.82849,12.49803 55.14893,32.72213c-11.31813,20.22409 -32.28089,32.72213 -55.14893,32.72213z" p-id="16690" fill="#3d4265" id="svg_1" />
  </g>
</svg>